<?xml version="1.0" encoding="iso-8859-1"?>
<!-- Generator: Adobe Illustrator 19.0.0, SVG Export Plug-In . SVG Version: 6.00 Build 0)  -->
<svg version="1.1" id="Capa_1" xmlns="http://www.w3.org/2000/svg" xmlns:xlink="http://www.w3.org/1999/xlink" x="0px" y="0px"
	 viewBox="0 0 512 512" style="enable-background:new 0 0 512 512;" xml:space="preserve">
<path style="fill:#2D458A;" d="M414.103,391.281c-6.605,0-11.959-5.374-11.959-12.004c0-5.391,3.539-9.951,8.412-11.468
	l-50.669-74.494c-1.599-2.348-4.213-2.348-5.811,0l-51.63,75.903l33.635,49.449l23.699,10.414c1.511,0.664,4.01,0.73,5.554,0.148
	l42.858-16.172c1.543-0.582,4.019-0.463,5.499,0.264l41.796,20.546L426.52,391.28L414.103,391.281L414.103,391.281z"/>
<path style="fill:#FFFFFF;" d="M359.888,293.316c-1.599-2.348-4.213-2.348-5.811,0l-34.371,50.53l22.065,32.439
	c1.161,1.707,3.063,1.707,4.226,0l20.03-29.45l10.652,15.66c1.162,1.708,3.063,1.708,4.226,0l13.018-19.14L359.888,293.316z"/>
<g style="opacity:0.1;">
	<path d="M318.008,392.096l54.535-80.174l-12.655-18.605c-1.599-2.348-4.213-2.348-5.811,0l-51.63,75.903L318.008,392.096z"/>
</g>
<path style="fill:#0481BF;" d="M201.667,221.053c-1.877-2.759-4.947-2.759-6.827,0L119.164,332.31
	c1.883-0.757,3.932-1.186,6.085-1.186h11.277c9.119,0,16.514,7.421,16.514,16.576c0,0.063-0.009,0.122-0.01,0.185h11.287
	c7.36,0,13.327,5.99,13.327,13.379c0,7.388-5.967,13.378-13.327,13.378H90.37l-39.486,58.052l44.544-26.751
	c1.415-0.85,3.728-0.846,5.14,0.008l32.865,19.874c1.412,0.854,3.799,0.999,5.304,0.322l28.461-12.8
	c1.505-0.677,3.871-0.499,5.257,0.396l26.558,17.134c1.386,0.895,3.728,1.022,5.202,0.282l47.143-23.63
	c1.475-0.739,3.9-0.765,5.391-0.056l39.146,18.616c1.489,0.709,3.979,0.829,5.53,0.268l25.775-9.331
	c1.551-0.562,4.057-0.478,5.566,0.186l3.316,1.457L201.667,221.053z"/>
<path style="fill:#FFFFFF;" d="M164.321,312.621l18.259-26.844l13.418,19.727c1.353,1.986,3.563,1.986,4.915,0l10.322-15.177
	l17.056,25.073c1.351,1.986,3.563,1.986,4.913,0l16.318-23.99l-47.855-70.356c-1.877-2.759-4.947-2.759-6.827,0l-48.857,71.83
	l13.425,19.738C160.759,314.606,162.971,314.606,164.321,312.621z"/>
<g style="opacity:0.1;">
	<path d="M90.37,374.642l-39.486,58.052l44.544-26.751c1.415-0.85,3.728-0.846,5.14,0.008l0.014,0.008l21.302-31.317H90.37z"/>
	<path d="M125.249,331.124h11.277c4.553,0,8.676,1.851,11.663,4.843l65.82-96.768l-12.343-18.145c-1.877-2.759-4.947-2.759-6.827,0
		l-75.676,111.257C121.047,331.553,123.096,331.124,125.249,331.124z"/>
</g>
<path style="fill:#FFFFFF;" d="M413.692,413.322c-1.48-0.728-3.956-0.847-5.499-0.264l-42.858,16.172
	c-1.544,0.583-4.043,0.516-5.554-0.148l-27.016-11.871c-1.51-0.664-4.016-0.748-5.566-0.186l-25.775,9.331
	c-1.552,0.561-4.041,0.441-5.53-0.268l-39.146-18.616c-1.49-0.709-3.916-0.684-5.391,0.056l-47.143,23.63
	c-1.475,0.739-3.816,0.612-5.202-0.282l-26.558-17.134c-1.386-0.895-3.752-1.073-5.257-0.396l-28.461,12.8
	c-1.505,0.677-3.892,0.532-5.304-0.322l-32.865-19.874c-1.412-0.854-3.725-0.858-5.14-0.008l-70.543,42.367
	c-1.415,0.85-1.223,1.544,0.428,1.544h459.693c1.649,0,1.788-0.596,0.308-1.324L413.692,413.322z"/>
<g style="opacity:0.1;">
	<path d="M66.545,448.309l52.214-31.357l-18.191-11c-1.412-0.854-3.725-0.858-5.14-0.008l-70.544,42.365
		c-1.415,0.85-1.223,1.544,0.428,1.544h41.661C65.322,449.853,65.13,449.158,66.545,448.309z"/>
</g>
<ellipse style="fill:#FCE591;" cx="293.58" cy="105.699" rx="43.39" ry="43.559"/>
<g style="opacity:0.1;">
	<path d="M281.212,105.704c0-18.569,11.58-34.414,27.883-40.682c-4.818-1.852-10.044-2.877-15.512-2.877
		c-23.966,0-43.395,19.502-43.395,43.559s19.429,43.559,43.395,43.559c5.468,0,10.693-1.025,15.512-2.878
		C292.792,140.118,281.212,124.273,281.212,105.704z"/>
</g>
<g>
	<ellipse style="fill:#A2E8F9;" cx="112.77" cy="129.799" rx="13.625" ry="13.664"/>
	<ellipse style="fill:#A2E8F9;" cx="462.27" cy="285.929" rx="13.625" ry="13.664"/>
	<ellipse style="fill:#A2E8F9;" cx="62.05" cy="244.269" rx="13.625" ry="13.664"/>
	<ellipse style="fill:#A2E8F9;" cx="409.51" cy="187.599" rx="13.625" ry="13.664"/>
	<ellipse style="fill:#A2E8F9;" cx="297.27" cy="249.599" rx="13.625" ry="13.664"/>
</g>
<g>
	<path style="fill:#FFFFFF;" d="M55.788,347.884h7.569c-0.82-2.461-1.272-5.091-1.272-7.829c0-13.622,11.001-24.663,24.57-24.663
		H93.1c11.302,0,20.815,7.664,23.681,18.095c2.48-1.491,5.369-2.364,8.469-2.364h11.277c9.119,0,16.514,7.421,16.514,16.576
		c0,0.063-0.009,0.122-0.01,0.185h11.287c7.36,0,13.327,5.99,13.327,13.379c0,7.388-5.967,13.378-13.327,13.378H55.788
		c-7.361,0-13.327-5.99-13.327-13.378C42.461,353.874,48.427,347.884,55.788,347.884z"/>
	<path style="fill:#FFFFFF;" d="M483.685,367.272h-1.55c0.479-1.662,0.742-3.416,0.742-5.233c0-10.37-8.375-18.776-18.706-18.776
		h-4.906c-7.448,0-13.88,4.371-16.888,10.695c-1.249-0.415-2.579-0.65-3.965-0.65h-8.585c-6.943,0-12.573,5.65-12.573,12.621
		c0,0.454,0.025,0.901,0.072,1.343h-3.223c-6.605,0-11.959,5.375-11.959,12.005s5.353,12.004,11.959,12.004h69.581
		c6.605,0,11.96-5.374,11.96-12.004C495.645,372.647,490.29,367.272,483.685,367.272z"/>
</g>
<path d="M293.583,156.763c28.063,0,50.894-22.905,50.894-51.059s-22.831-51.059-50.894-51.059
	c-28.064,0-50.895,22.905-50.895,51.059S265.52,156.763,293.583,156.763z M293.583,69.645c19.792,0,35.894,16.176,35.894,36.059
	s-16.102,36.059-35.894,36.059c-19.792,0-35.895-16.176-35.895-36.059S273.791,69.645,293.583,69.645z"/>
<path d="M504.5,442.353h-14.882c-0.314-0.192-0.642-0.379-0.997-0.554l-28.046-13.787l-19.882-29.231h42.991
	c10.73,0,19.46-8.75,19.46-19.504c0-8.408-5.335-15.59-12.79-18.325c-0.57-13.986-12.097-25.189-26.184-25.189h-4.906
	c-8.091,0-15.689,3.812-20.6,10.047c-0.084-0.001-0.168-0.001-0.252-0.001h-8.585c-7.728,0-14.438,4.408-17.792,10.84
	l-45.948-67.553c-2.181-3.203-5.499-5.04-9.105-5.04c-3.607,0-6.926,1.838-9.106,5.043l-45.429,66.787l-14.355-21.105
	c-2.329-3.425-6.994-4.312-10.419-1.983c-3.426,2.33-4.314,6.995-1.983,10.42l46.108,67.788l-22.667,8.206
	c-0.077,0.005-0.183-0.003-0.266-0.013l-38.896-18.496c-3.599-1.712-8.409-1.664-11.973,0.123L202,423.879l-25.479-16.438
	c-3.501-2.26-8.599-2.645-12.4-0.935l-27.608,12.417l-32.065-19.391c-3.789-2.29-9.084-2.298-12.881-0.019l-15.287,9.181
	l18.061-26.553H122c4.143,0,7.5-3.358,7.5-7.5s-3.357-7.5-7.5-7.5H55.788c-3.213,0-5.827-2.637-5.827-5.878
	c0-3.242,2.614-5.879,5.827-5.879h7.569c2.411,0,4.675-1.159,6.084-3.115c1.41-1.956,1.794-4.47,1.031-6.757
	c-0.589-1.767-0.888-3.603-0.888-5.458c0-9.463,7.657-17.163,17.07-17.163H93.1c7.65,0,14.414,5.173,16.448,12.581
	c0.622,2.263,2.267,4.105,4.445,4.977c2.179,0.872,4.641,0.675,6.651-0.535c1.426-0.857,2.975-1.291,4.604-1.291h11.277
	c4.917,0,8.927,3.984,9.013,8.915c-0.004,0.083-0.007,0.163-0.008,0.228c-0.031,2.009,0.744,3.947,2.154,5.379
	c1.409,1.432,3.335,2.239,5.345,2.239h11.287c3.213,0,5.827,2.637,5.827,5.879c0,3.241-2.614,5.878-5.827,5.878H159
	c-4.143,0-7.5,3.358-7.5,7.5s3.357,7.5,7.5,7.5h5.317c11.484,0,20.827-9.366,20.827-20.878c0-11.513-9.343-20.879-20.827-20.879
	h-4.91c-3.096-9.711-12.183-16.761-22.881-16.761h-2.383l11.839-17.406l7.225,10.623c2.063,3.031,5.219,4.77,8.657,4.77
	c0.001,0,0.002,0,0.002,0c3.439,0,6.595-1.74,8.656-4.771l12.058-17.727l7.219,10.613c2.064,3.03,5.219,4.768,8.657,4.767h0.002
	c3.438-0.001,6.593-1.739,8.656-4.772l4.122-6.06l10.853,15.955c2.063,3.033,5.219,4.772,8.658,4.772c3.44,0,6.597-1.74,8.658-4.771
	l10.117-14.873l5.765,8.475c2.33,3.425,6.994,4.312,10.419,1.983c3.425-2.33,4.313-6.995,1.983-10.42l-59.821-87.948
	c-2.313-3.399-5.814-5.35-9.609-5.351c-0.002,0-0.003,0-0.005,0c-3.794,0-7.297,1.949-9.615,5.351l-70.322,103.386
	c-5.954-7.587-15.175-12.328-25.217-12.328h-6.444c-17.684,0-32.07,14.428-32.07,32.163c0,0.121,0.001,0.242,0.002,0.363
	c-10.928,0.626-19.626,9.736-19.626,20.845c0,11.512,9.343,20.878,20.827,20.878H76.2l-30.59,44.973l-24.587,14.766
	c-0.256,0.153-0.496,0.313-0.726,0.475H7.5c-4.143,0-7.5,3.358-7.5,7.5s3.357,7.5,7.5,7.5H310c4.143,0,7.5-3.358,7.5-7.5
	s-3.357-7.5-7.5-7.5H49.367l48.619-29.198l31.566,19.089c3.495,2.112,8.536,2.417,12.26,0.743l27.48-12.359l25.652,16.55
	c3.602,2.325,8.798,2.609,12.63,0.686l46.55-23.333l38.546,18.33c3.311,1.576,7.855,1.796,11.307,0.548l25.557-9.252
	c0.129-0.008,0.303-0.002,0.427,0.014l26.804,11.777c3.318,1.459,7.825,1.579,11.219,0.299l42.559-16.058
	c0.043,0,0.089,0.002,0.131,0.006l45.076,22.159H348c-4.143,0-7.5,3.358-7.5,7.5s3.357,7.5,7.5,7.5h156.5c4.143,0,7.5-3.358,7.5-7.5
	C512,445.711,508.643,442.353,504.5,442.353z M198.254,229.37l42.198,62.039l-9.705,14.267l-13.311-19.568
	c-1.396-2.053-3.719-3.282-6.201-3.282c-2.483,0-4.806,1.229-6.201,3.282l-6.579,9.672l-9.674-14.222
	c-1.396-2.053-3.719-3.282-6.201-3.282c-2.483,0-4.805,1.229-6.201,3.282l-14.515,21.339l-6.812-10.014L198.254,229.37z
	 M424.784,366.481c-0.021-0.192-0.03-0.373-0.03-0.552c0-2.824,2.275-5.121,5.073-5.121h8.585c0.528,0,1.066,0.09,1.6,0.267
	c3.593,1.193,7.513-0.477,9.139-3.896c1.854-3.898,5.823-6.417,10.114-6.417h4.906c6.179,0,11.206,5.059,11.206,11.276
	c0,1.06-0.151,2.122-0.449,3.157c-0.652,2.264-0.202,4.703,1.215,6.586c1.417,1.882,3.636,2.99,5.992,2.99h1.55
	c2.459,0,4.46,2.021,4.46,4.505c0,2.483-2.001,4.504-4.46,4.504h-69.581c-2.459,0-4.459-2.021-4.459-4.504
	c0-2.484,2-4.505,4.459-4.505h3.223c2.127,0,4.153-0.903,5.576-2.484C424.324,370.707,425.009,368.596,424.784,366.481z
	 M356.982,302.38l27.871,40.975l-6.061,8.911l-6.564-9.649c-1.396-2.053-3.719-3.282-6.201-3.282c-2.483,0-4.805,1.229-6.201,3.282
	l-15.942,23.439l-15.107-22.21L356.982,302.38z M405.546,406.041l-42.623,16.083c-0.105,0.006-0.247,0.002-0.355-0.009
	l-21.497-9.446l-29.554-43.449l8.188-12.039l15.864,23.323c1.971,2.898,5,4.561,8.31,4.562c0.001,0,0.002,0,0.004,0
	c3.309,0,6.338-1.661,8.314-4.563l13.829-20.333l4.451,6.543c1.973,2.899,5.002,4.562,8.312,4.563c0.001,0,0.001,0,0.001,0
	c3.311-0.001,6.34-1.662,8.315-4.563l6.817-10.023l6.174,9.077c-3.369,3.509-5.453,8.267-5.453,13.51
	c0,10.754,8.729,19.504,19.459,19.504h8.449l10.77,15.833L417,406.591C413.647,404.942,409.04,404.721,405.546,406.041z"/>
<path d="M112.767,150.962c11.648,0,21.125-9.494,21.125-21.164c0-11.67-9.477-21.164-21.125-21.164
	c-11.647,0-21.124,9.494-21.124,21.164C91.643,141.468,101.119,150.962,112.767,150.962z M112.767,123.634
	c3.377,0,6.125,2.766,6.125,6.164c0,3.398-2.748,6.164-6.125,6.164s-6.124-2.765-6.124-6.164
	C106.643,126.4,109.39,123.634,112.767,123.634z"/>
<path d="M462.27,307.091c11.647,0,21.124-9.494,21.124-21.164s-9.477-21.164-21.124-21.164c-11.648,0-21.125,9.494-21.125,21.164
	C441.145,297.597,450.621,307.091,462.27,307.091z M462.27,279.763c3.377,0,6.124,2.765,6.124,6.164
	c0,3.398-2.747,6.164-6.124,6.164c-3.377,0-6.125-2.765-6.125-6.164C456.145,282.528,458.893,279.763,462.27,279.763z"/>
<path d="M62.049,265.429c11.649,0,21.125-9.494,21.125-21.164c0-11.67-9.476-21.164-21.125-21.164
	c-11.647,0-21.124,9.494-21.124,21.164C40.925,255.935,50.401,265.429,62.049,265.429z M62.049,238.101
	c3.377,0,6.125,2.766,6.125,6.164c0,3.398-2.748,6.164-6.125,6.164s-6.124-2.765-6.124-6.164
	C55.925,240.867,58.672,238.101,62.049,238.101z"/>
<path d="M409.515,208.763c11.648,0,21.124-9.494,21.124-21.164c0-11.67-9.477-21.165-21.124-21.165
	c-11.648,0-21.125,9.494-21.125,21.165C388.39,199.269,397.866,208.763,409.515,208.763z M409.515,181.435
	c3.377,0,6.124,2.766,6.124,6.165c0,3.398-2.747,6.164-6.124,6.164c-3.377,0-6.125-2.765-6.125-6.164
	C403.39,184.201,406.138,181.435,409.515,181.435z"/>
<path d="M276.145,249.6c0,11.669,9.477,21.164,21.125,21.164c11.647,0,21.124-9.494,21.124-21.164
	c0-11.67-9.477-21.165-21.124-21.165C285.621,228.435,276.145,237.929,276.145,249.6z M303.394,249.6
	c0,3.398-2.747,6.164-6.124,6.164c-3.377,0-6.125-2.765-6.125-6.164c0-3.399,2.748-6.165,6.125-6.165
	C300.647,243.435,303.394,246.201,303.394,249.6z"/>
<g>
</g>
<g>
</g>
<g>
</g>
<g>
</g>
<g>
</g>
<g>
</g>
<g>
</g>
<g>
</g>
<g>
</g>
<g>
</g>
<g>
</g>
<g>
</g>
<g>
</g>
<g>
</g>
<g>
</g>
</svg>
