<?xml version="1.0" encoding="iso-8859-1"?>
<!-- Generator: Adobe Illustrator 19.0.0, SVG Export Plug-In . SVG Version: 6.00 Build 0)  -->
<svg version="1.1" id="Capa_1" xmlns="http://www.w3.org/2000/svg" xmlns:xlink="http://www.w3.org/1999/xlink" x="0px" y="0px"
	 viewBox="0 0 512 512" style="enable-background:new 0 0 512 512;" xml:space="preserve">
<path style="fill:#3A5792;" d="M457.323,432.819l-63.4-93.211v0.001l-13.018,19.14c-1.163,1.708-3.064,1.708-4.226,0l-10.652-15.66
	l-20.03,29.45c-1.163,1.707-3.065,1.707-4.226,0l-22.065-32.439l-18.825,27.676l33.783,49.668l25.117,11.037
	c1.511,0.664,4.01,0.73,5.554,0.148l42.858-16.172c1.543-0.582,4.019-0.463,5.499,0.264l44.357,21.805
	C457.972,434.004,457.736,433.426,457.323,432.819z"/>
<path style="fill:#D7F7FF;" d="M359.888,289.569c-1.599-2.348-4.213-2.348-5.811,0l-34.371,50.53l22.065,32.439
	c1.161,1.707,3.063,1.707,4.226,0l20.03-29.45l10.652,15.66c1.162,1.708,3.063,1.708,4.226,0l13.018-19.14L359.888,289.569z"/>
<path style="opacity:0.1;fill:#210035;enable-background:new    ;" d="M316.44,390.652l56.103-82.478l-12.655-18.605
	c-1.599-2.348-4.213-2.348-5.811,0l-53.196,78.207L316.44,390.652z"/>
<path style="fill:#0481BF;" d="M249.523,287.663l-16.318,23.99c-1.351,1.986-3.563,1.986-4.913,0l-17.056-25.073l-10.322,15.177
	c-1.352,1.986-3.563,1.986-4.915,0l-13.418-19.727l-18.259,26.844c-1.351,1.986-3.563,1.986-4.914,0l-13.425-19.738v-0.001
	L47.267,434.267l48.161-28.924c1.415-0.85,3.728-0.846,5.14,0.008l32.865,19.875c1.412,0.853,3.799,0.998,5.304,0.322l28.461-12.8
	c1.505-0.677,3.871-0.499,5.257,0.396l26.558,17.134c1.386,0.895,3.728,1.022,5.202,0.282l47.143-23.63
	c1.475-0.739,3.9-0.765,5.391-0.056l39.146,18.616c1.489,0.709,3.979,0.829,5.53,0.268l25.775-9.331
	c1.551-0.562,4.057-0.478,5.566,0.186l6.368,2.798L249.523,287.663z"/>
<path style="fill:#D7F7FF;" d="M164.321,308.875l18.259-26.844l13.418,19.727c1.353,1.986,3.563,1.986,4.915,0l10.322-15.177
	l17.056,25.073c1.351,1.986,3.563,1.986,4.913,0l16.318-23.99l-47.855-70.356c-1.877-2.759-4.947-2.759-6.827,0l-48.857,71.83
	l13.425,19.738C160.759,310.859,162.971,310.859,164.321,308.875z"/>
<path style="opacity:0.1;fill:#210035;enable-background:new    ;" d="M95.428,405.342c0.922-0.554,2.224-0.738,3.41-0.568
	L214.01,235.452l-12.343-18.145c-1.877-2.759-4.947-2.759-6.827,0L47.267,434.267L95.428,405.342z"/>
<ellipse style="fill:#FCE591;" cx="293.58" cy="101.952" rx="43.39" ry="43.559"/>
<path style="opacity:0.1;fill:#210035;enable-background:new    ;" d="M281.212,101.958c0-18.569,11.58-34.414,27.883-40.682
	c-4.818-1.853-10.044-2.877-15.512-2.877c-23.966,0-43.395,19.502-43.395,43.559s19.429,43.559,43.395,43.559
	c5.468,0,10.693-1.025,15.512-2.878C292.792,136.372,281.212,120.527,281.212,101.958z"/>
<path style="fill:#D7F7FF;" d="M413.692,409.576c-1.48-0.728-3.956-0.847-5.499-0.264l-42.858,16.172
	c-1.544,0.583-4.043,0.516-5.554-0.148l-27.016-11.871c-1.51-0.664-4.016-0.748-5.566-0.186l-25.775,9.331
	c-1.552,0.561-4.041,0.441-5.53-0.268l-39.146-18.616c-1.49-0.709-3.916-0.684-5.391,0.056l-47.143,23.63
	c-1.475,0.739-3.816,0.612-5.202-0.282l-26.558-17.134c-1.386-0.895-3.752-1.073-5.257-0.396l-28.461,12.8
	c-1.505,0.677-3.892,0.532-5.304-0.322l-32.865-19.874c-1.412-0.854-3.725-0.858-5.14-0.008l-70.543,42.367
	c-1.415,0.85-1.223,1.544,0.428,1.544h459.693c1.649,0,1.788-0.596,0.308-1.324L413.692,409.576z"/>
<g style="opacity:0.1;">
	<path style="fill:#1B003F;" d="M66.545,444.563l52.214-31.357l-18.191-11c-1.412-0.854-3.725-0.858-5.14-0.008l-70.544,42.365
		c-1.415,0.85-1.223,1.544,0.428,1.544h41.661C65.322,446.107,65.13,445.411,66.545,444.563z"/>
</g>
<g>
	<ellipse style="fill:#A2E8F9;" cx="112.77" cy="126.053" rx="13.625" ry="13.664"/>
	<ellipse style="fill:#A2E8F9;" cx="462.27" cy="282.182" rx="13.625" ry="13.664"/>
	<ellipse style="fill:#A2E8F9;" cx="62.05" cy="240.523" rx="13.625" ry="13.664"/>
	<ellipse style="fill:#A2E8F9;" cx="409.51" cy="183.853" rx="13.625" ry="13.664"/>
	<ellipse style="fill:#A2E8F9;" cx="295.62" cy="245.592" rx="13.625" ry="13.664"/>
</g>
<g>
	<path style="fill:#E2EEFD;" d="M55.788,344.138h7.569c-0.82-2.461-1.272-5.091-1.272-7.829c0-13.622,11.001-24.663,24.57-24.663
		H93.1c11.302,0,20.815,7.664,23.681,18.095c2.48-1.491,5.369-2.364,8.469-2.364h11.277c9.119,0,16.514,7.421,16.514,16.576
		c0,0.063-0.009,0.122-0.01,0.185h11.287c7.36,0,13.327,5.99,13.327,13.379c0,7.388-5.967,13.378-13.327,13.378H55.788
		c-7.361,0-13.327-5.99-13.327-13.378C42.461,350.128,48.427,344.138,55.788,344.138z"/>
	<path style="fill:#E2EEFD;" d="M472.54,369.262h-1.55c0.479-1.662,0.742-3.416,0.742-5.233c0-10.37-8.375-18.776-18.706-18.776
		h-4.906c-7.448,0-13.88,4.371-16.888,10.695c-1.249-0.415-2.579-0.65-3.965-0.65h-8.585c-6.943,0-12.573,5.65-12.573,12.621
		c0,0.454,0.025,0.901,0.072,1.343h-3.223c-6.606,0-11.959,5.375-11.959,12.005s5.353,12.004,11.959,12.004h69.581
		c6.605,0,11.96-5.374,11.96-12.004C484.5,374.637,479.146,369.262,472.54,369.262z"/>
</g>
<path style="fill:#A2E8F9;" d="M504.5,453.607H7.5c-4.143,0-7.5-3.358-7.5-7.5s3.357-7.5,7.5-7.5h497c4.143,0,7.5,3.358,7.5,7.5
	S508.643,453.607,504.5,453.607z"/>
<g>
</g>
<g>
</g>
<g>
</g>
<g>
</g>
<g>
</g>
<g>
</g>
<g>
</g>
<g>
</g>
<g>
</g>
<g>
</g>
<g>
</g>
<g>
</g>
<g>
</g>
<g>
</g>
<g>
</g>
</svg>
